<?xml version="1.0" encoding="UTF-8"?> <svg xmlns="http://www.w3.org/2000/svg" viewBox="0 0 80 80"><defs><style>.cls-1,.cls-6{fill:none;}.cls-2,.cls-3{fill:#fff;}.cls-2,.cls-6{stroke:#333;stroke-linecap:round;stroke-linejoin:round;stroke-width:2px;}.cls-4{fill:#d4ead8;}.cls-5{fill:#34a551;}</style></defs><title>threat-actors</title><g id="threat-actors"><rect class="cls-1" width="80" height="80"></rect><rect id="_Trazado_" data-name="&lt;Trazado&gt;" class="cls-2" x="3" y="3" width="74" height="74" rx="4" ry="4"></rect><path class="cls-3" d="M70.5,63.13,59.25,55.88l2.13-5.5-7.76-2.87H25.88L18,51l2.75,4.51L10.81,62.9H10V67a4,4,0,0,0,4,4H66a4,4,0,0,0,4-4V63.13Z"></path><path class="cls-3" d="M55,39v1.87A20,20,0,0,1,46.83,57l-2.1,1.54a8,8,0,0,1-9.46,0L33.17,57A20,20,0,0,1,25,40.87V39"></path><path class="cls-4" d="M27,28s-10.5,1-10.5,5c0,3.37,10.52,7,23.5,7s23.5-3.94,23.5-7.32C63.5,29,53,28,53,28Z"></path><path class="cls-3" d="M27,33l3.24-17.75a2,2,0,0,1,2.84-1.42l6,3a2,2,0,0,0,1.76,0l6-3a2,2,0,0,1,2.84,1.42L53,33l-8.5,2a19.82,19.82,0,0,1-9,0Z"></path><circle class="cls-5" cx="49.5" cy="66.5" r="2.5"></circle><path class="cls-6" d="M27,32.55l3.24-17.3a2,2,0,0,1,2.84-1.42l6,3a2,2,0,0,0,1.76,0l6-3a2,2,0,0,1,2.84,1.42L53,32.55"></path><path class="cls-6" d="M27,28s-10.5,1-10.5,5c0,3.37,10.52,7,23.5,7s23.5-3.94,23.5-7.32C63.5,29,53,28,53,28"></path><path class="cls-6" d="M55,39v1.87A20,20,0,0,1,46.83,57l-2.1,1.54a8,8,0,0,1-9.46,0L33.17,57A20,20,0,0,1,25,40.87V39"></path><polyline class="cls-6" points="26 48 18 51 26 62"></polyline><line class="cls-6" x1="20" y1="56" x2="11" y2="62"></line><polyline class="cls-6" points="54 48 62 51 54 62"></polyline><line class="cls-6" x1="60" y1="56" x2="69" y2="62"></line></g></svg> 